name Walk7.mot
datacolumns 19
datarows 20
range 2.08500000 2.18000000
endheader

                time	   L_ground_force_vx	   L_ground_force_vy	   L_ground_force_vz	   L_ground_force_px	   L_ground_force_py	   L_ground_force_pz	   R_ground_force_vx	   R_ground_force_vy	   R_ground_force_vz	   R_ground_force_px	   R_ground_force_py	   R_ground_force_pz	   L_ground_torque_x	   L_ground_torque_y	   L_ground_torque_z	   R_ground_torque_x	   R_ground_torque_y	   R_ground_torque_z	
          2.08500000	         -0.00845758	         -0.00033913	          0.00058216	         -0.00003548	          0.00000000	         -0.00002952	        -30.99047411	        827.61939252	        -51.57256318	          0.53122746	          0.00000000	          0.12793078	          0.00000000	          0.00004699	          0.00000000	          0.00000000	          1.86378382	          0.00000000	
          2.09000000	         -0.00894580	         -0.00693347	          0.00091004	         -0.00002240	          0.00000000	         -0.00001976	        -28.77892784	        817.28681078	        -50.33451493	          0.53251794	          0.00000000	          0.12835546	          0.00000000	          0.00002274	          0.00000000	          0.00000000	          1.53753241	          0.00000000	
          2.09500000	         -0.00855139	         -0.01061394	          0.00104832	         -0.00001224	          0.00000000	         -0.00001193	        -26.67202162	        808.13070414	        -49.19178554	          0.53374618	          0.00000000	          0.12875115	          0.00000000	          0.00000539	          0.00000000	          0.00000000	          1.22242996	          0.00000000	
          2.10000000	         -0.00762214	         -0.01213472	          0.00105410	         -0.00000476	          0.00000000	         -0.00000597	        -24.65651485	        800.16977550	        -48.17426184	          0.53491695	          0.00000000	          0.12912054	          0.00000000	         -0.00000617	          0.00000000	          0.00000000	          0.91540970	          0.00000000	
          2.10500000	         -0.00642342	         -0.01215026	          0.00097443	          0.00000042	          0.00000000	         -0.00000168	        -22.72159154	        793.40582118	        -47.30334601	          0.53603517	          0.00000000	          0.12946637	          0.00000000	         -0.00001309	          0.00000000	          0.00000000	          0.61423123	          0.00000000	
          2.11000000	         -0.00514668	         -0.01119929	          0.00084628	          0.00000370	          0.00000000	          0.00000121	        -20.85920516	        787.82567513	        -46.59146834	          0.53710613	          0.00000000	          0.12978987	          0.00000000	         -0.00001649	          0.00000000	          0.00000000	          0.31766848	          0.00000000	
          2.11500000	         -0.00392090	         -0.00970372	          0.00069716	          0.00000552	          0.00000000	          0.00000297	        -19.06386942	        783.40822493	        -46.04228196	          0.53813591	          0.00000000	          0.13009069	          0.00000000	         -0.00001737	          0.00000000	          0.00000000	          0.02517084	          0.00000000	
          2.12000000	         -0.00282473	         -0.00797719	          0.00054640	          0.00000624	          0.00000000	          0.00000386	        -17.33147253	        780.13441043	        -45.65045973	          0.53912964	          0.00000000	          0.13036809	          0.00000000	         -0.00001656	          0.00000000	          0.00000000	         -0.26327453	          0.00000000	
          2.12500000	         -0.00189838	         -0.00623910	          0.00040651	          0.00000622	          0.00000000	          0.00000412	        -15.65647583	        777.99137112	        -45.40216816	          0.54009009	          0.00000000	          0.13062095	          0.00000000	         -0.00001473	          0.00000000	          0.00000000	         -0.54734225	          0.00000000	
          2.13000000	         -0.00115419	         -0.00463106	          0.00028465	          0.00000571	          0.00000000	          0.00000397	        -14.03046874	        776.97327958	        -45.27686257	          0.54101770	          0.00000000	          0.13084802	          0.00000000	         -0.00001239	          0.00000000	          0.00000000	         -0.82672983	          0.00000000	
          2.13500000	         -0.00058567	         -0.00323360	          0.00018399	          0.00000493	          0.00000000	          0.00000356	        -12.44204451	        777.08107786	        -45.25027096	          0.54191114	          0.00000000	          0.13104812	          0.00000000	         -0.00000991	          0.00000000	          0.00000000	         -1.10155858	          0.00000000	
          2.14000000	         -0.00017477	         -0.00208169	          0.00010489	          0.00000404	          0.00000000	          0.00000301	        -10.87715807	        778.31818622	        -45.29821914	          0.54276857	          0.00000000	          0.13122020	          0.00000000	         -0.00000754	          0.00000000	          0.00000000	         -1.37284343	          0.00000000	
          2.14500000	          0.00010255	         -0.00117836	          0.00004587	          0.00000315	          0.00000000	          0.00000242	         -9.31884256	        780.68466145	        -45.39931381	          0.54358788	          0.00000000	          0.13136379	          0.00000000	         -0.00000542	          0.00000000	          0.00000000	         -1.64272494	          0.00000000	
          2.15000000	          0.00027228	         -0.00050588	          0.00000439	          0.00000233	          0.00000000	          0.00000185	         -7.74694069	        784.17146353	        -45.53698059	          0.54436715	          0.00000000	          0.13147890	          0.00000000	         -0.00000363	          0.00000000	          0.00000000	         -1.91444246	          0.00000000	
          2.15500000	          0.00035960	         -0.00003462	         -0.00002256	          0.00000162	          0.00000000	          0.00000134	         -6.13936763	        788.75706079	        -45.70171535	          0.54510632	          0.00000000	          0.13156643	          0.00000000	         -0.00000220	          0.00000000	          0.00000000	         -2.19218404	          0.00000000	
          2.16000000	          0.00038715	          0.00027033	         -0.00003805	          0.00000104	          0.00000000	          0.00000091	         -4.47497874	        794.40335987	        -45.89263498	          0.54580806	          0.00000000	          0.13162870	          0.00000000	         -0.00000111	          0.00000000	          0.00000000	         -2.48065086	          0.00000000	
          2.16500000	          0.00037420	          0.00044451	         -0.00004498	          0.00000058	          0.00000000	          0.00000056	         -2.73600976	        801.05003169	        -46.11735121	          0.54647793	          0.00000000	          0.13166953	          0.00000000	         -0.00000032	          0.00000000	          0.00000000	         -2.78424959	          0.00000000	
          2.17000000	          0.00033630	          0.00052105	         -0.00004587	          0.00000024	          0.00000000	          0.00000029	         -0.90932879	        808.61222492	        -46.39036050	          0.54712309	          0.00000000	          0.13169385	          0.00000000	          0.00000021	          0.00000000	          0.00000000	         -3.10678920	          0.00000000	
          2.17500000	          0.00028540	          0.00052892	         -0.00004281	          0.00000001	          0.00000000	          0.00000009	          1.01194144	        816.98093314	        -46.73059559	          0.54775337	          0.00000000	          0.13170687	          0.00000000	          0.00000054	          0.00000000	          0.00000000	         -3.45094440	          0.00000000	
          2.18000000	          0.00023018	          0.00049214	         -0.00003746	         -0.00000015	          0.00000000	         -0.00000004	          3.02742599	        826.02936735	        -47.15886179	          0.54838195	          0.00000000	          0.13171445	          0.00000000	          0.00000070	          0.00000000	          0.00000000	         -3.81760970	          0.00000000	
